<svg width="134" height="151" viewBox="0 0 134 151" fill="none" xmlns="http://www.w3.org/2000/svg">
<path d="M0.0350515 36.635L68.3929 0L68.3776 35.2317L58.043 40.7702L58.0531 17.7196L10.3615 43.2789L10.3371 99.5036L26.9728 90.5881L26.9675 102.771L0 117.224L0.0350515 36.635Z" fill="black"/>
<path d="M68.3653 63.4126L68.3578 80.5888L51.4017 89.6761L51.407 77.4931L58.0286 73.9444L58.0308 68.9512L68.3653 63.4126Z" fill="black"/>
<path fill-rule="evenodd" clip-rule="evenodd" d="M99.2139 65.3175C80.3374 75.434 65.0274 100.996 65.0181 122.413L65.0168 125.446C65.0074 146.862 80.3023 156.023 99.1788 145.906C118.055 135.79 133.365 110.227 133.375 88.8109L133.376 85.778C133.385 64.3615 118.09 55.201 99.2139 65.3175ZM99.2072 77.4993C86.0375 84.5573 75.3562 102.392 75.3497 117.333L75.3487 119.449C75.3422 134.391 86.0131 140.782 99.1827 133.724C112.352 126.666 123.034 108.832 123.04 93.89L123.041 91.774C123.048 76.8323 112.377 70.4413 99.2072 77.4993Z" fill="black"/>
<path d="M34.0295 74.635C34.0326 67.4553 39.1652 58.8857 45.4934 55.4942L90.9348 31.1408C97.263 27.7494 102.39 30.8203 102.387 38L102.38 55.7583C101.336 56.2278 100.281 56.7473 99.2174 57.3175C96.7711 58.6286 94.3743 60.1547 92.0448 61.8666L92.0501 49.7196C92.0518 45.8536 89.2908 44.2 85.8833 46.0262L50.5314 64.9723C47.124 66.7985 44.3603 71.4129 44.3586 75.2789L44.3402 117.504C44.3386 121.37 47.0995 123.023 50.507 121.197L58.7324 116.789C58.2314 119.967 57.9683 123.115 57.967 126.192L57.9656 129.225C57.9656 129.277 57.9657 129.328 57.9658 129.38L45.4583 136.083C39.1301 139.475 34.0026 136.404 34.0058 129.224L34.0295 74.635Z" fill="black"/>
<path d="M102.367 84.1413L102.364 92.5889C102.36 99.7686 97.2279 108.338 90.8997 111.73L82.4083 116.28C82.4027 116.079 82.4 115.876 82.4 115.67L82.401 113.554C82.4025 110.115 83.2072 106.457 84.614 102.918L85.8589 102.251C89.2664 100.425 92.0301 95.8103 92.0318 91.9443L92.0321 91.1616C94.2073 88.8294 96.6385 86.8741 99.2038 85.4993C100.285 84.9197 101.343 84.4688 102.367 84.1413Z" fill="black"/>
</svg>
