<svg width="508" height="508" viewBox="0 0 508 508" fill="none" xmlns="http://www.w3.org/2000/svg">
<path fill-rule="evenodd" clip-rule="evenodd" d="M254 508C394.28 508 508 394.28 508 254C508 113.72 394.28 0 254 0C113.72 0 0 113.72 0 254C0 394.28 113.72 508 254 508ZM254 453.521C364.192 453.521 453.521 364.192 453.521 254C453.521 143.808 364.192 54.4791 254 54.4791C143.808 54.4791 54.4791 143.808 54.4791 254C54.4791 364.192 143.808 453.521 254 453.521Z" fill="#244D4D"/>
<path fill-rule="evenodd" clip-rule="evenodd" d="M254 415.315C343.092 415.315 415.315 343.092 415.315 254C415.315 164.908 343.092 92.6852 254 92.6852C164.908 92.6852 92.6852 164.908 92.6852 254C92.6852 343.092 164.908 415.315 254 415.315ZM254 370.033C318.084 370.033 370.033 318.084 370.033 254C370.033 189.917 318.084 137.967 254 137.967C189.917 137.967 137.967 189.917 137.967 254C137.967 318.084 189.917 370.033 254 370.033Z" fill="#244D4D"/>
</svg>
