<svg width="93" height="91" viewBox="0 0 93 91" fill="none" xmlns="http://www.w3.org/2000/svg">
<path d="M29.67 71.5815C24.3077 71.5815 19.9609 75.9285 19.9609 81.2906C19.9609 86.6528 24.3079 90.9996 29.67 90.9996C35.0322 90.9996 39.379 86.6526 39.379 81.2906C39.3792 75.9285 35.0322 71.5815 29.67 71.5815ZM29.67 86.6846C26.691 86.6846 24.2761 84.2697 24.2761 81.2908C24.2761 78.3118 26.691 75.8969 29.67 75.8969C32.6489 75.8969 35.0638 78.3118 35.0638 81.2908C35.064 84.2697 32.6489 86.6846 29.67 86.6846Z" fill="white"/>
<path d="M70.6612 71.5815C65.2989 71.5815 60.9521 75.9285 60.9521 81.2906C60.9521 86.6528 65.2991 90.9996 70.6612 90.9996C76.0232 90.9996 80.3702 86.6526 80.3702 81.2906C80.3702 75.9285 76.0234 71.5815 70.6612 71.5815ZM70.6612 86.6846C67.6822 86.6846 65.2673 84.2697 65.2673 81.2908C65.2673 78.3118 67.6822 75.8969 70.6612 75.8969C73.6402 75.8969 76.055 78.3118 76.055 81.2908C76.0552 84.2697 73.6402 86.6846 70.6612 86.6846Z" fill="white"/>
<path d="M92.56 14.9445C92.1107 14.4536 91.496 14.1464 90.834 14.0813L20.6049 13.1104L18.6631 7.17705C17.2951 3.21064 13.5808 0.53292 9.38545 0.488525H2.15758C0.965946 0.488525 0 1.45447 0 2.64611C0 3.83774 0.965946 4.80369 2.15758 4.80369H9.38545C11.7313 4.85552 13.797 6.36184 14.5637 8.57951L28.2643 49.8971L27.1856 52.3783C25.9824 55.4809 26.3438 58.973 28.1565 61.7637C29.952 64.5046 32.9724 66.1961 36.2475 66.2946H78.2125C79.4041 66.2946 80.3701 65.3287 80.3701 64.1371C80.3701 62.9454 79.4041 61.9795 78.2125 61.9795H36.2473C34.3978 61.9332 32.6953 60.9603 31.7164 59.3903C30.7484 57.8396 30.5495 55.9292 31.177 54.2121L32.0402 52.2703L77.4571 47.5235C82.4459 46.9741 86.5496 43.3457 87.7057 38.4617L92.884 16.7781C93.1173 16.1537 92.9934 15.4514 92.56 14.9445ZM83.4983 37.491C82.7979 40.6349 80.1287 42.954 76.9178 43.2086L32.0402 47.8473L22.0074 17.4256L88.1371 18.3965L83.4983 37.491Z" fill="white"/>
</svg>
